<?xml version="1.0" encoding="UTF-8" standalone="no"?>
<svg
   xmlns:dc="http://purl.org/dc/elements/1.1/"
   xmlns:cc="http://creativecommons.org/ns#"
   xmlns:rdf="http://www.w3.org/1999/02/22-rdf-syntax-ns#"
   xmlns:svg="http://www.w3.org/2000/svg"
   xmlns="http://www.w3.org/2000/svg"
   version="1.1"
   id="svg4769"
   viewBox="0 0 1005.6627 347.24145"
   height="347.24146"
   width="1005.6627">
  <defs
     id="defs4771" />
  <metadata
     id="metadata4774">
    <rdf:RDF>
      <cc:Work
         rdf:about="">
        <dc:format>image/svg+xml</dc:format>
        <dc:type
           rdf:resource="http://purl.org/dc/dcmitype/StillImage" />
        <dc:title></dc:title>
      </cc:Work>
    </rdf:RDF>
  </metadata>
  <g
     transform="translate(94.259903,-547.31288)"
     id="layer1">
    <circle
       r="151.24916"
       cy="723.30518"
       cx="76.989258"
       id="path4739"
       style="fill:#dbe2e3;fill-opacity:1;stroke:none;stroke-width:2;stroke-miterlimit:4;stroke-dasharray:none;stroke-opacity:1" />
    <g
       transform="matrix(1.8152949,0,0,1.8152949,-327.07298,-954.39279)"
       id="g4602">
      <g
         transform="matrix(0.49057369,0,0,-0.43998892,146.40906,1005.7704)"
         id="g3363-8-3">
        <g
           transform="translate(178.0626,235.0086)"
           id="g3365-0-5">
          <path
             id="path3367-2-3"
             style="fill:#41b883;fill-opacity:1;fill-rule:nonzero;stroke:none"
             d="M 0,0 -22.669,-39.264 -45.338,0 -120.829,0 -22.669,-170.017 75.491,0 0,0 Z" />
        </g>
        <g
           transform="translate(178.0626,235.0086)"
           id="g3369-2-9">
          <path
             id="path3371-3-0"
             style="fill:#34495e;fill-opacity:1;fill-rule:nonzero;stroke:none"
             d="M 0,0 -22.669,-39.264 -45.338,0 -81.565,0 -22.669,-102.01 36.227,0 0,0 Z" />
        </g>
      </g>
      <g
         transform="matrix(-0.70710678,-0.70710678,0.70710678,-0.70710678,301.4413,1443.1244)"
         id="g4292-2-2-8"
         style="fill:#de4f4f;fill-opacity:1;stroke:none">
        <path
           id="path4288-5-1-3-1"
           d="m 447.25,303.86133 c -17.53504,0 -31.75,14.21496 -31.75,31.75 0,17.53504 14.21496,31.75 31.75,31.75 3.83474,-0.004 7.63702,-0.70291 10.7676,-1.96703 3.13058,-1.26413 3.60142,-1.49336 4.06638,-1.73414 l 21.66407,-10.53125 36.03515,-17.51758 -36.03515,-17.51563 -21.23633,-10.32422 c -0.4421,-0.22793 -0.88949,-0.44543 -4.21421,-1.63456 -3.32472,-1.18914 -7.71837,-2.24089 -11.04751,-2.27559 z"
           style="fill:#de4f4f;fill-opacity:1;stroke:none;stroke-width:2;stroke-miterlimit:4;stroke-dasharray:none;stroke-opacity:1" />
      </g>
    </g>
    <g
       transform="matrix(1.9561184,0,0,1.9561184,-301.27937,-1050.4538)"
       id="text4362-7-6"
       style="font-style:normal;font-weight:normal;font-size:40px;line-height:125%;font-family:sans-serif;letter-spacing:0px;word-spacing:0px;fill:#000000;fill-opacity:1;stroke:none;stroke-width:1px;stroke-linecap:butt;stroke-linejoin:miter;stroke-opacity:1">
      <path
         id="path4582"
         style="font-style:normal;font-variant:normal;font-weight:300;font-stretch:normal;font-size:52.5px;line-height:125%;font-family:'Open Sans';-inkscape-font-specification:'Open Sans, Light';text-align:start;writing-mode:lr-tb;text-anchor:start"
         d="m 334.86282,923.82196 -10.7666,-27.86499 2.61475,0 7.20337,18.94409 q 1.43554,3.64014 2.15332,6.35742 l 0.15381,0 q 1.05102,-3.48632 2.15332,-6.40869 l 7.20337,-18.89282 2.61474,0 -10.7666,27.86499 -2.56348,0 z" />
      <path
         id="path4584"
         style="font-style:normal;font-variant:normal;font-weight:300;font-stretch:normal;font-size:52.5px;line-height:125%;font-family:'Open Sans';-inkscape-font-specification:'Open Sans, Light';text-align:start;writing-mode:lr-tb;text-anchor:start"
         d="m 355.06302,895.95697 0,18.04688 q 0,4.2041 1.7688,6.1267 1.7688,1.89698 5.48584,1.89698 4.97314,0 7.30591,-2.51221 2.35839,-2.51221 2.35839,-8.17749 l 0,-15.38086 2.51221,0 0,27.86499 -2.15332,0 -0.46142,-3.84521 -0.15381,0 q -2.71729,4.35791 -9.66431,4.35791 -9.5105,0 -9.5105,-10.17701 l 0,-18.20068 2.51221,0 z" />
      <path
         id="path4586"
         style="font-style:normal;font-variant:normal;font-weight:300;font-stretch:normal;font-size:52.5px;line-height:125%;font-family:'Open Sans';-inkscape-font-specification:'Open Sans, Light';text-align:start;writing-mode:lr-tb;text-anchor:start"
         d="m 395.07889,924.33466 q -6.07544,0 -9.48487,-3.74268 -3.38378,-3.74268 -3.38378,-10.48462 0,-6.66504 3.28125,-10.66406 3.28125,-4.02466 8.84399,-4.02466 4.92187,0 7.76733,3.43506 2.84546,3.43506 2.84546,9.33105 l 0,2.05078 -20.07202,0 q 0.0513,5.74219 2.66602,8.76709 2.64038,3.02491 7.53662,3.02491 2.38403,0 4.17846,-0.33326 1.82007,-0.33325 4.58863,-1.43554 l 0,2.30713 q -2.3584,1.02539 -4.35791,1.38427 -1.99951,0.38453 -4.40918,0.38453 z m -0.74341,-26.66016 q -4.02466,0 -6.45996,2.66602 -2.4353,2.64038 -2.84546,7.63916 l 17.22656,0 q 0,-4.84498 -2.10205,-7.56226 -2.10205,-2.74292 -5.81909,-2.74292 z" />
      <path
         id="path4588"
         style="font-style:normal;font-variant:normal;font-weight:300;font-stretch:normal;font-size:52.5px;line-height:125%;font-family:'Open Sans';-inkscape-font-specification:'Open Sans, Light';text-align:start;writing-mode:lr-tb;text-anchor:start;fill:#a8b8bc;fill-opacity:1"
         d="m 423.9949,908.85126 11.12549,0 0,2.10205 -11.12549,0 0,11.07422 -2.10205,0 0,-11.07422 -11.07422,0 0,-2.10205 11.07422,0 0,-11.12549 2.10205,0 0,11.12549 z" />
      <path
         id="path4590"
         style="font-style:normal;font-variant:normal;font-weight:300;font-stretch:normal;font-size:52.5px;line-height:125%;font-family:'Open Sans';-inkscape-font-specification:'Open Sans, Light';text-align:start;writing-mode:lr-tb;text-anchor:start"
         d="m 477.39212,923.82196 0,-18.27759 q 0,-4.07593 -1.58936,-5.94726 -1.58935,-1.87134 -4.8706,-1.87134 -4.28101,0 -6.33179,2.3584 -2.05078,2.3584 -2.05078,7.40844 l 0,16.32935 -2.58911,0 0,-19.04663 q 0,-7.04956 -6.45996,-7.04956 -4.38355,0 -6.38306,2.56348 -1.99951,2.53784 -1.99951,8.15185 l 0,15.38086 -2.53784,0 0,-27.86499 2.10205,0 0.53833,3.81958 0.15381,0 q 1.15356,-2.07642 3.28125,-3.20435 2.12768,-1.15356 4.69116,-1.15356 6.58813,0 8.45947,4.94751 l 0.10254,0 q 1.35864,-2.38403 3.64014,-3.66577 2.30713,-1.28174 5.22949,-1.28174 4.56299,0 6.84448,2.4353 2.2815,2.43531 2.2815,7.7417 l 0,18.22632 -2.51221,0 z" />
      <path
         id="path4592"
         style="font-style:normal;font-variant:normal;font-weight:300;font-stretch:normal;font-size:52.5px;line-height:125%;font-family:'Open Sans';-inkscape-font-specification:'Open Sans, Light';text-align:start;writing-mode:lr-tb;text-anchor:start"
         d="m 500.18143,924.33466 q -6.07544,0 -9.48487,-3.74268 -3.38379,-3.74268 -3.38379,-10.48462 0,-6.66504 3.28125,-10.66406 3.28125,-4.02466 8.844,-4.02466 4.92187,0 7.76733,3.43506 2.84546,3.43506 2.84546,9.33105 l 0,2.05078 -20.07202,0 q 0.0513,5.74219 2.66602,8.76709 2.64038,3.02491 7.53662,3.02491 2.38403,0 4.17846,-0.33326 1.82007,-0.33325 4.58863,-1.43554 l 0,2.30713 q -2.3584,1.02539 -4.35791,1.38427 -1.99952,0.38453 -4.40918,0.38453 z m -0.74341,-26.66016 q -4.02466,0 -6.45996,2.66602 -2.4353,2.64038 -2.84546,7.63916 l 17.22656,0 q 0,-4.84498 -2.10205,-7.56226 -2.10205,-2.74292 -5.81909,-2.74292 z" />
      <path
         id="path4594"
         style="font-style:normal;font-variant:normal;font-weight:300;font-stretch:normal;font-size:52.5px;line-height:125%;font-family:'Open Sans';-inkscape-font-specification:'Open Sans, Light';text-align:start;writing-mode:lr-tb;text-anchor:start"
         d="m 525.09842,922.0788 q 2.40967,0 4.2041,-0.41016 l 0,2.05078 q -1.8457,0.61524 -4.25537,0.61524 -3.69141,0 -5.46021,-1.97388 -1.74316,-1.97388 -1.74316,-6.20361 l 0,-17.99561 -4.1272,0 0,-1.48682 4.1272,-1.15356 1.28174,-6.30615 1.30737,0 0,6.74194 8.17749,0 0,2.20459 -8.17749,0 0,17.63672 q 0,3.20434 1.12793,4.74243 1.12793,1.53809 3.5376,1.53809 z" />
      <path
         id="path4596"
         style="font-style:normal;font-variant:normal;font-weight:300;font-stretch:normal;font-size:52.5px;line-height:125%;font-family:'Open Sans';-inkscape-font-specification:'Open Sans, Light';text-align:start;writing-mode:lr-tb;text-anchor:start"
         d="m 546.63162,924.33466 q -6.07544,0 -9.48486,-3.74268 -3.38379,-3.74268 -3.38379,-10.48462 0,-6.66504 3.28125,-10.66406 3.28125,-4.02466 8.84399,-4.02466 4.92188,0 7.76734,3.43506 2.84546,3.43506 2.84546,9.33105 l 0,2.05078 -20.07202,0 q 0.0513,5.74219 2.66601,8.76709 2.64038,3.02491 7.53662,3.02491 2.38404,0 4.17847,-0.33326 1.82007,-0.33325 4.58862,-1.43554 l 0,2.30713 q -2.3584,1.02539 -4.35791,1.38427 -1.99951,0.38453 -4.40918,0.38453 z m -0.74341,-26.66016 q -4.02465,0 -6.45996,2.66602 -2.4353,2.64038 -2.84546,7.63916 l 17.22657,0 q 0,-4.84498 -2.10205,-7.56226 -2.10205,-2.74292 -5.8191,-2.74292 z" />
      <path
         id="path4598"
         style="font-style:normal;font-variant:normal;font-weight:300;font-stretch:normal;font-size:52.5px;line-height:125%;font-family:'Open Sans';-inkscape-font-specification:'Open Sans, Light';text-align:start;writing-mode:lr-tb;text-anchor:start"
         d="m 587.23709,909.85101 q 0,6.81885 -3.30688,10.66407 -3.30689,3.81958 -9.12598,3.81958 -3.66577,0 -6.45996,-1.7688 -2.79419,-1.7688 -4.28101,-5.07569 -1.48681,-3.30688 -1.48681,-7.63916 0,-6.81884 3.30688,-10.61279 3.30689,-3.81958 9.07471,-3.81958 5.74219,0 8.9978,3.87085 3.28125,3.84521 3.28125,10.56152 z m -21.99463,0 q 0,5.74219 2.51221,8.97217 2.53784,3.20435 7.1521,3.20435 4.61426,0 7.12646,-3.20435 2.53785,-3.22998 2.53785,-8.97217 0,-5.76782 -2.56348,-8.94653 -2.53784,-3.17871 -7.1521,-3.17871 -4.61426,0 -7.12647,3.17871 -2.48657,3.15308 -2.48657,8.94653 z" />
      <path
         id="path4600"
         style="font-style:normal;font-variant:normal;font-weight:300;font-stretch:normal;font-size:52.5px;line-height:125%;font-family:'Open Sans';-inkscape-font-specification:'Open Sans, Light';text-align:start;writing-mode:lr-tb;text-anchor:start"
         d="m 605.92484,895.41864 q 1.76879,0 3.79394,0.35889 l -0.48706,2.4353 q -1.74316,-0.43579 -3.6145,-0.43579 -3.56323,0 -5.84473,3.0249 -2.28149,3.0249 -2.28149,7.63916 l 0,15.38086 -2.53784,0 0,-27.86499 2.15332,0 0.25634,5.02441 0.17945,0 q 1.71753,-3.07617 3.66577,-4.30664 1.94824,-1.2561 4.7168,-1.2561 z" />
    </g>
  </g>
</svg>
